<svg xmlns="http://www.w3.org/2000/svg" xmlns:xlink="http://www.w3.org/1999/xlink" width="500" zoomAndPan="magnify" viewBox="0 0 375 374.999991" height="500" preserveAspectRatio="xMidYMid meet" version="1.0"><defs><g/><clipPath id="82c0bf4168"><path d="M 74 138.507812 L 108 138.507812 L 108 208 L 74 208 Z M 74 138.507812 " clip-rule="nonzero"/></clipPath></defs><g clip-path="url(#82c0bf4168)"><path fill="#000000" d="M 81.757812 204.144531 C 59.285156 180.457031 93.597656 163.34375 93.28125 143.414062 C 99.84375 160.890625 64.1875 177.253906 81.757812 204.144531 Z M 104.019531 163.476562 C 102.664062 161.605469 102.191406 158.988281 101.914062 156.117188 C 103.359375 155.554688 104.742188 154.632812 105.449219 153.082031 C 104.496094 153.941406 103.378906 154.53125 101.796875 154.816406 C 101.289062 148.566406 101.207031 141.519531 94.921875 138.507812 C 103.066406 155.828125 88.550781 165.203125 84.4375 182.375 C 82.640625 189.886719 84.574219 197.445312 84.574219 197.445312 C 84.574219 197.445312 79.402344 188.582031 82.910156 178.820312 C 73.867188 192.382812 85.699219 200.328125 86.460938 207.929688 C 89.609375 201.089844 82.863281 193.457031 87.921875 185.820312 C 92.15625 179.425781 95.519531 184.777344 100.929688 184.6875 C 104.324219 184.632812 102.546875 177.265625 103.898438 176.960938 C 105.25 176.65625 106.058594 176.09375 104.550781 174.902344 C 103.039062 173.707031 107.585938 174.722656 105.789062 172.855469 C 103.988281 170.988281 104.664062 170.21875 106.648438 169.132812 C 108.996094 167.855469 106.175781 166.457031 104.019531 163.476562 Z M 104.019531 163.476562 " fill-opacity="1" fill-rule="nonzero"/></g><path fill="#004aad" d="M 69.730469 144.929688 C 68.726562 144.136719 67.785156 143.707031 66.898438 143.648438 L 66.898438 141.878906 C 68.667969 141.9375 70.746094 142 73.132812 142.054688 C 75.519531 142.113281 77.917969 142.144531 80.335938 142.144531 C 83.046875 142.144531 85.59375 142.113281 87.984375 142.054688 C 88.957031 142.03125 89.835938 142.007812 90.65625 141.984375 C 90.625 142.644531 90.558594 143.320312 90.464844 144.007812 C 90.058594 144.09375 89.679688 144.191406 89.351562 144.3125 C 88.292969 144.695312 87.703125 145.402344 87.585938 146.433594 C 87.46875 147.4375 87.804688 148.9375 88.585938 150.921875 C 86.621094 155.941406 83.371094 161.1875 79.296875 166.070312 L 72.46875 149.308594 C 71.644531 147.183594 70.730469 145.726562 69.730469 144.929688 Z M 124.847656 142.058594 C 123.699219 142.117188 122.476562 142.148438 121.179688 142.148438 C 119.351562 142.148438 117.554688 142.117188 115.785156 142.058594 C 114.019531 142 112.132812 141.941406 110.128906 141.882812 L 110.128906 143.648438 C 112.546875 143.710938 114.402344 144.300781 115.699219 145.417969 C 116.992188 146.535156 117.613281 148.367188 117.554688 150.898438 C 117.496094 153.433594 116.671875 156.910156 115.082031 161.328125 L 104.203125 190.648438 L 102.941406 187.429688 C 94.382812 184.414062 89.957031 185.628906 89.183594 190.335938 L 95.015625 204.648438 C 95.484375 204.589844 95.988281 204.558594 96.519531 204.558594 C 97.046875 204.558594 97.550781 204.558594 98.019531 204.558594 C 98.550781 204.558594 99.082031 204.558594 99.613281 204.558594 C 100.140625 204.558594 100.640625 204.589844 101.117188 204.648438 L 119.765625 154.167969 C 121.003906 150.808594 122.34375 148.335938 123.789062 146.742188 C 125.234375 145.148438 126.601562 144.121094 127.898438 143.648438 L 127.898438 141.878906 C 127.011719 141.9375 126 142 124.847656 142.058594 Z M 124.847656 142.058594 " fill-opacity="1" fill-rule="nonzero"/><g fill="#000000" fill-opacity="1"><g transform="translate(118.585405, 200.709654)"><g><path d="M 15.734375 -1.453125 C 18.785156 -1.453125 21.09375 -2.503906 22.65625 -4.609375 C 24.21875 -6.710938 25 -9.828125 25 -13.953125 C 25 -18.078125 24.21875 -21.191406 22.65625 -23.296875 C 21.09375 -25.398438 18.785156 -26.453125 15.734375 -26.453125 C 12.660156 -26.453125 10.34375 -25.398438 8.78125 -23.296875 C 7.21875 -21.191406 6.4375 -18.078125 6.4375 -13.953125 C 6.4375 -9.828125 7.21875 -6.710938 8.78125 -4.609375 C 10.34375 -2.503906 12.660156 -1.453125 15.734375 -1.453125 Z M 15.734375 0.546875 C 13.828125 0.546875 12.078125 0.234375 10.484375 -0.390625 C 8.898438 -1.015625 7.503906 -1.929688 6.296875 -3.140625 C 4.890625 -4.546875 3.847656 -6.132812 3.171875 -7.90625 C 2.492188 -9.675781 2.15625 -11.691406 2.15625 -13.953125 C 2.15625 -16.210938 2.492188 -18.226562 3.171875 -20 C 3.847656 -21.78125 4.890625 -23.367188 6.296875 -24.765625 C 7.515625 -25.992188 8.910156 -26.914062 10.484375 -27.53125 C 12.054688 -28.144531 13.804688 -28.453125 15.734375 -28.453125 C 19.785156 -28.453125 23.054688 -27.125 25.546875 -24.46875 C 28.046875 -21.8125 29.296875 -18.304688 29.296875 -13.953125 C 29.296875 -11.710938 28.953125 -9.695312 28.265625 -7.90625 C 27.578125 -6.113281 26.535156 -4.523438 25.140625 -3.140625 C 23.921875 -1.921875 22.523438 -1 20.953125 -0.375 C 19.378906 0.238281 17.640625 0.546875 15.734375 0.546875 Z M 15.734375 0.546875 "/></g></g></g><g fill="#000000" fill-opacity="1"><g transform="translate(150.96955, 200.709654)"><g><path d="M 6.703125 -25.953125 L 14.953125 -4.5 L 23.203125 -25.953125 L 20.046875 -25.953125 L 20.046875 -27.953125 L 28.25 -27.953125 L 28.25 -25.953125 L 25.53125 -25.953125 L 15.5625 0 L 12.34375 0 L 2.421875 -25.953125 L -0.375 -25.953125 L -0.375 -27.953125 L 9.8125 -27.953125 L 9.8125 -25.953125 Z M 6.703125 -25.953125 "/></g></g></g><g fill="#000000" fill-opacity="1"><g transform="translate(179.610334, 200.709654)"><g><path d="M 9.46875 -1.984375 L 13.03125 -1.984375 L 13.03125 0 L 2.109375 0 L 2.109375 -1.984375 L 5.671875 -1.984375 L 5.671875 -25.953125 L 2.109375 -25.953125 L 2.109375 -27.953125 L 13.03125 -27.953125 L 13.03125 -25.953125 L 9.46875 -25.953125 Z M 7.59375 -35.3125 C 8.1875 -35.3125 8.703125 -35.09375 9.140625 -34.65625 C 9.578125 -34.21875 9.796875 -33.710938 9.796875 -33.140625 C 9.796875 -32.515625 9.582031 -31.992188 9.15625 -31.578125 C 8.738281 -31.160156 8.21875 -30.953125 7.59375 -30.953125 C 6.976562 -30.953125 6.457031 -31.160156 6.03125 -31.578125 C 5.613281 -31.992188 5.40625 -32.515625 5.40625 -33.140625 C 5.40625 -33.710938 5.625 -34.21875 6.0625 -34.65625 C 6.5 -35.09375 7.007812 -35.3125 7.59375 -35.3125 Z M 7.59375 -35.3125 "/></g></g></g><g fill="#000000" fill-opacity="1"><g transform="translate(195.710854, 200.709654)"><g><path d="M 2.109375 0 L 2.109375 -1.984375 L 5.671875 -1.984375 L 5.671875 -25.953125 L 2.109375 -25.953125 L 2.109375 -27.953125 L 24.625 -27.953125 L 24.625 -21.734375 L 22.3125 -21.734375 L 22.3125 -25.65625 L 9.46875 -25.65625 L 9.46875 -16.28125 L 18.625 -16.28125 L 18.625 -19.796875 L 20.9375 -19.796875 L 20.9375 -10.5 L 18.625 -10.5 L 18.625 -14 L 9.46875 -14 L 9.46875 -2.296875 L 22.609375 -2.296875 L 22.609375 -6.21875 L 24.921875 -6.21875 L 24.921875 0 Z M 2.109375 0 "/></g></g></g><g fill="#000000" fill-opacity="1"><g transform="translate(224.651106, 200.709654)"><g><path d="M 1.875 0 L 1.875 -1.984375 L 5.640625 -1.984375 L 5.640625 -25.953125 L 1.875 -25.953125 L 1.875 -27.953125 L 9.046875 -27.953125 L 25.796875 -5.890625 L 25.796875 -25.953125 L 22.0625 -25.953125 L 22.0625 -27.953125 L 31.859375 -27.953125 L 31.859375 -25.953125 L 28.109375 -25.953125 L 28.109375 0.546875 L 25.84375 0.546875 L 7.9375 -23.015625 L 7.9375 -1.984375 L 11.703125 -1.984375 L 11.703125 0 Z M 1.875 0 "/></g></g></g><g fill="#000000" fill-opacity="1"><g transform="translate(259.150246, 200.709654)"><g><path d="M 1.875 0 L 1.875 -1.984375 L 5.640625 -1.984375 L 5.640625 -25.953125 L 1.875 -25.953125 L 1.875 -27.953125 L 9.046875 -27.953125 L 25.796875 -5.890625 L 25.796875 -25.953125 L 22.0625 -25.953125 L 22.0625 -27.953125 L 31.859375 -27.953125 L 31.859375 -25.953125 L 28.109375 -25.953125 L 28.109375 0.546875 L 25.84375 0.546875 L 7.9375 -23.015625 L 7.9375 -1.984375 L 11.703125 -1.984375 L 11.703125 0 Z M 1.875 0 "/></g></g></g></svg>